<?xml version="1.0" encoding="UTF-8" standalone="no"?><!DOCTYPE svg PUBLIC "-//W3C//DTD SVG 1.1//EN" "http://www.w3.org/Graphics/SVG/1.1/DTD/svg11.dtd"><svg width="100%" height="100%" viewBox="0 0 363 389" version="1.1" xmlns="http://www.w3.org/2000/svg" xmlns:xlink="http://www.w3.org/1999/xlink" xml:space="preserve" xmlns:serif="http://www.serif.com/" style="fill-rule:evenodd;clip-rule:evenodd;stroke-linejoin:round;stroke-miterlimit:1.41421;"><path d="M156.58,239l-88.3,64.75c-10.59,7.06 -18.84,11.77 -29.43,11.77c-21.19,0 -38.85,-18.84 -38.85,-40c0,-17.69 14.13,-30.64 27.08,-36.52l103.6,-44.74l-103.6,-45.92c-14.08,-5.88 -27.08,-18.83 -27.08,-36.49c0,-21.19 18.84,-38.85 40,-38.85c10.6,0 17.66,3.53 28.25,11.77l88.3,64.75l-11.74,-104.78c-3.53,-24.74 12.95,-44.74 36.5,-44.74c23.55,0 40,18.84 36.5,43.56l-11.81,105.96l88.3,-64.75c10.63,-8.24 18.87,-11.77 29.47,-11.77c21.241,0.189 38.661,17.609 38.85,38.85c0,18.84 -12.95,30.61 -27.08,36.5l-103.61,45.91l103.61,44.74c14.13,5.88 27.08,18.83 27.08,37.67c0,21.19 -18.84,38.85 -40,38.85c-9.42,0 -17.66,-4.71 -28.26,-11.77l-88.36,-64.75l11.77,104.78c3.53,24.72 -12.95,44.74 -36.5,44.74c-23.55,0 -40,-18.84 -36.5,-43.56l11.81,-105.96Z" style="fill-rule:nonzero;"/></svg>